<?xml version="1.0" standalone="no"?>
<!DOCTYPE svg PUBLIC "-//W3C//DTD SVG 20010904//EN"
 "http://www.w3.org/TR/2001/REC-SVG-20010904/DTD/svg10.dtd">
<svg version="1.0" xmlns="http://www.w3.org/2000/svg"
 width="360.000000pt" height="360.000000pt" viewBox="0 0 360.000000 360.000000"
 preserveAspectRatio="xMidYMid meet">
<metadata>
Created by potrace 1.14, written by Peter Selinger 2001-2017
</metadata>
<g transform="translate(0.000000,360.000000) scale(0.100000,-0.100000)"
fill="#000000" stroke="none">
<path d="M369 3585 c-174 -48 -309 -183 -355 -358 -18 -69 -21 -2753 -3 -2839
38 -177 181 -327 358 -373 52 -13 229 -15 1432 -15 1135 0 1383 3 1426 14 142
38 256 130 326 265 48 93 47 67 47 1521 0 863 -4 1382 -10 1410 -41 186 -197
342 -378 379 -82 17 -2781 14 -2843 -4z m2856 -190 c102 -50 163 -124 184
-225 9 -41 11 -395 9 -1405 l-3 -1350 -25 -50 c-30 -63 -91 -124 -155 -155
l-50 -25 -1385 0 -1385 0 -55 28 c-65 34 -118 88 -151 154 l-24 48 0 1385 0
1385 24 48 c43 88 126 156 214 178 18 4 646 6 1397 6 1334 -2 1366 -2 1405
-22z"/>
<path d="M490 3120 c-13 -7 -15 -51 -14 -279 0 -188 4 -275 11 -282 7 -7 36
-13 65 -15 151 -8 357 -38 443 -64 198 -61 248 -80 400 -151 104 -48 320 -188
385 -249 9 -8 29 -25 44 -37 157 -121 382 -408 490 -623 98 -193 177 -433 201
-605 3 -22 8 -51 10 -65 7 -41 18 -161 19 -212 1 -25 5 -50 9 -55 11 -11 537
-13 558 -2 12 6 16 19 14 41 -2 18 -6 83 -9 143 -8 118 -9 131 -32 275 -68
420 -279 877 -565 1225 -73 90 -258 271 -374 366 -87 72 -299 220 -360 251
-16 9 -68 36 -115 60 -230 120 -538 218 -793 253 -27 4 -56 8 -65 10 -82 15
-304 25 -322 15z"/>
<path d="M479 2169 c-7 -81 -2 -545 6 -555 6 -8 39 -16 83 -19 390 -29 744
-272 917 -630 64 -131 97 -253 111 -402 4 -40 12 -73 20 -79 15 -12 547 -14
559 -2 8 8 9 84 1 146 -4 26 -8 63 -10 82 -34 281 -186 629 -369 845 -187 220
-410 386 -665 495 -81 35 -241 84 -308 96 -16 2 -54 9 -84 15 -30 5 -101 12
-157 16 -84 5 -103 3 -104 -8z"/>
<path d="M722 1124 c-180 -46 -284 -234 -229 -414 83 -268 441 -321 591 -87
40 63 61 151 51 221 -25 195 -223 328 -413 280z"/>
</g>
</svg>
